# AST/ASF file generated using VICON BodyLanguage
# -----------------------------------------------
:version 1.10
:name VICON
:units
  mass 1.0
  length 0.45
  angle deg
:documentation
   .ast/.asf automatically generated from VICON data using
   VICON BodyBuilder and BodyLanguage model FoxedUp or BRILLIANT.MOD
:root
   order TX TY TZ RX RY RZ
   axis XYZ
   position 0 0 0  
   orientation 0 0 0 
:bonedata
  begin
     id 1 
     name lhipjoint
     direction 0.630082 -0.636569 0.44472 
     length 2.82754 
     axis 0 0 0  XYZ
  end
  begin
     id 2 
     name lfemur
     direction 0.34202 -0.939693 0  
     length 7.26371  
     axis 0 0 20  XYZ
    dof rx ry rz
    limits (-160.0 20.0)
           (-70.0 70.0)
           (-60.0 70.0)
  end
  begin
     id 3 
     name ltibia
     direction 0.34202 -0.939693 0   
     length 7.88616   
     axis 0 0 20   XYZ
    dof rx
    limits (-10.0 170.0)
  end
  begin
     id 4 
     name lfoot
     direction 0.0603448 -0.165796 0.984312   
     length 1.77861   
     axis -90 7.62852e-016 20   XYZ
    dof rx rz
    limits (-45.0 90.0)
           (-70.0 20.0)
  end
  begin
     id 5 
     name ltoes
     direction 1.53577e-011 -4.21876e-011 1   
     length 0.902235   
     axis -90 7.62852e-016 20   XYZ
    dof rx
    limits (-90.0 20.0)
  end
  begin
     id 6 
     name rhipjoint
     direction -0.656778 -0.61817 0.431866   
     length 2.9117  
     axis 0 0 0  XYZ 
  end
  begin
     id 7 
     name rfemur
     direction -0.34202 -0.939693 0   
     length 6.81603   
     axis 0 0 -20   XYZ
    dof rx ry rz
    limits (-160.0 20.0)
           (-70.0 70.0)
           (-70.0 60.0)
  end
  begin
     id 8 
     name rtibia
     direction -0.34202 -0.939693 0   
     length 8.05997   
     axis 0 0 -20   XYZ
    dof rx
    limits (-10.0 170.0)
 end
 begin
     id 9 
     name rfoot
     direction -0.0862404 -0.236944 0.967688   
     length 1.84899  
     axis -90 -7.62852e-016 -20   XYZ
    dof rx rz
    limits (-45.0 90.0)
           (-20.0 70.0)
  end
  begin
     id 10 
     name rtoes
     direction -1.53561e-011 -4.21798e-011 1   
     length 0.931579   
     axis -90 -7.62852e-016 -20   XYZ
    dof rx
    limits (-90.0 20.0)
  end
  begin
     id 11 
     name lowerback
     direction -0.0110203 0.991769 -0.127564   
     length 2.05686   
     axis 0 0 0   XYZ
    dof rx ry rz
    limits (-20.0 45.0)
           (-30.0 30.0)
           (-30.0 30.0)
  end
  begin
     id 12 
     name upperback
     direction 0.0109719 0.99993 -0.00432479   
     length 2.06234   
     axis 0 0 0   XYZ
    dof rx ry rz
    limits (-20.0 45.0)
           (-30.0 30.0)
           (-30.0 30.0)
  end
  begin
     id 13 
     name thorax
     direction 0.0173308 0.998351 0.0547306   
     length 2.09856   
     axis 0 0 0   XYZ
    dof rx ry rz
    limits (-20.0 45.0)
           (-30.0 30.0)
           (-30.0 30.0)
  end
  begin
     id 14 
     name lowerneck
     direction -0.0311736 0.989033 0.144366   
     length 1.98151   
     axis 0 0 0   XYZ
    dof rx ry rz
    limits (-20.0 45.0)
           (-30.0 30.0)
           (-30.0 30.0)
  end
  begin
     id 15 
     name upperneck
     direction 0.0421057 0.975772 -0.214698   
     length 2.01457   
     axis 0 0 0   XYZ
    dof rx ry rz
    limits (-20.0 45.0)
           (-30.0 30.0)
           (-30.0 30.0)
  end
  begin
     id 16
     name head
     direction 0.0136911 0.995958 -0.0887718  
     length 2.03562  
     axis 0 0 0   XYZ
    dof rx ry rz
    limits (-20.0 45.0)
           (-30.0 30.0)
           (-30.0 30.0)
  end
  begin
     id 17 
     name lclavicle
     direction 0.915335 0.396201 0.0720134  
     length 4.16217  
     axis 0 0 0   XYZ
    dof ry rz
    limits (-20.0 10.0)
           (0.0 20.0)
  end
  begin
     id 18 
     name lhumerus
     direction 1 -4.48965e-011 6.383e-018   
     length 4.93042   
     axis -180 -30 -90   XYZ
    dof rx ry rz
    limits (-60.0 90.0)
           (-90.0 90.0)
           (-90.0 90.0)
  end
  begin
     id 19
     name lradius
     direction 1 -4.48972e-011 8.8689e-027   
     length 3.68177   
     axis -180 -30 -90   XYZ
    dof rx
    limits (-10.0 170.0)
  end
  begin
     id 20
     name lwrist
     direction 1 -4.48953e-011 1.17971e-026   
     length 1.84089   
     axis -7.69454e-015 90 90   XYZ
    dof ry
    limits (-180.0 0.0)
 end
  begin
     id 21 
     name lhand
     direction 1 -4.49027e-011 2.35802e-026   
     length 0.721479   
     axis -1.50533e-014 90 90   XYZ
    dof rx rz
    limits (-90.0 90.0)
           (-45.0 45.0)
  end
  begin
     id 22 
     name lfingers
     direction 1 -4.48915e-011 4.72027e-026   
     length 0.581675   
     axis -3.01059e-014 90 90   XYZ
    dof rx
    limits (0.0 90.0)
  end
  begin
     id 23
     name lthumb
     direction 0.707107 -6.34948e-011 0.707107   
     length 0.835172   
     axis -90 45 -5.12164e-014   XYZ
    dof rx rz
    limits (-45.0 45.0)
           (-45.0 45.0)
  end
  begin
     id 24 
     name rclavicle
     direction -0.882781 0.469197 0.0234974   
     length 3.95647  
     axis 0 0 0   XYZ 
    dof ry rz
    limits (-10.0 20.0)
           (-20.0 0.0)
  end
  begin
     id 25 
     name rhumerus
     direction -1 -4.48965e-011 -1.54906e-018  
     length 5.07905   
     axis -180 30 90   XYZ
    dof rx ry rz
    limits (-90.0 60.0)
           (-90.0 90.0)
           (-90.0 90.0)
  end
  begin
     id 26 
     name rradius
     direction -1 -4.48972e-011 5.47489e-027   
     length 3.54394   
     axis -180 30 90   XYZ
    dof rx
    limits (-10.0 170.0)
  end
  begin
     id 27 
     name rwrist
     direction -1 -4.48955e-011 1.17969e-026   
     length 1.77197   
     axis -7.69454e-015 -90 -90   XYZ
    dof ry
    limits (-180.0 0.0)
  end
  begin
     id 28
     name rhand
     direction -1 -4.48982e-011 2.35888e-026   
     length 0.681156   
     axis -1.50533e-014 -90 -90   XYZ
    dof rx rz
    limits (-90.0 90.0)
           (-45.0 45.0)
  end
  begin
     id 29
     name rfingers
     direction -1 -4.48955e-011 4.71877e-026   
     length 0.549165   
     axis -3.01059e-014 -90 -90   XYZ
    dof rx
    limits (0.0 90.0)
  end
  begin
     id 30
     name rthumb
     direction -0.707107 -6.3491e-011 0.707107   
     length 0.788495   
     axis -90 -45 5.12164e-014   XYZ
    dof rx rz
    limits (-45.0 45.0)
           (-45.0 45.0)
  end
:hierarchy
  begin
    root lhipjoint rhipjoint lowerback
    lhipjoint lfemur
    lfemur ltibia
    ltibia lfoot
    lfoot ltoes
    rhipjoint rfemur
    rfemur rtibia
    rtibia rfoot
    rfoot rtoes
    lowerback upperback
    upperback thorax
    thorax lowerneck lclavicle rclavicle
    lowerneck upperneck
    upperneck head
    lclavicle lhumerus
    lhumerus lradius
    lradius lwrist
    lwrist lhand lthumb
    lhand lfingers
    rclavicle rhumerus
    rhumerus rradius
    rradius rwrist
    rwrist rhand rthumb
    rhand rfingers
  end

#!OML:ASF H:\Bending\Project 1\Capture day 1\Session 1\Subject.ASF
:FULLY-SPECIFIED
:DEGREES
351
root -10.8028 18.0555 -16.5076 -148.047 86.044 -153.792
lowerback 5.90913 0.0753019 0.694564
upperback -2.27305 0.284747 1.97004
thorax -5.68811 0.163016 1.62792
lowerneck -23.812 -4.10895 -6.48727
upperneck 30.9958 -3.96929 3.02857
head 15.0002 -1.85206 1.62997
rclavicle 7.57867e-015 -1.66979e-014
rhumerus -48.6485 -1.35441 -77.5981
rradius 37.9312
rwrist 5.63908
rhand -21.6253 -22.5684
rfingers 7.12502
rthumb 4.77062 -52.4947
lclavicle 7.57867e-015 -1.66979e-014
lhumerus -40.1812 2.37196 88.6264
lradius 31.1016
lwrist 30.2267
lhand -33.3252 8.90693
lfingers 7.12502
lthumb -6.52818 38.7863
rfemur 2.74132 -1.12245 16.6306
rtibia -4.77083e-015
rfoot -10.1285 -18.0991
rtoes 10.9177
lfemur -10.6427 -24.5314 -10.9495
ltibia 21.9541
lfoot -26.5764 15.085
ltoes 18.6232
352
root -10.8012 18.0572 -16.5057 -147.834 86.0586 -153.573
lowerback 5.93066 0.0794101 0.642592
upperback -2.2548 0.286504 1.9824
thorax -5.68161 0.165901 1.66979
lowerneck -23.8388 -4.09958 -6.43644
upperneck 31.0097 -3.94496 2.94575
head 15.0073 -1.84782 1.59139
rclavicle -6.55989e-015 -4.25399e-014
rhumerus -48.5195 -1.58061 -77.346
rradius 37.6601
rwrist 5.88381
rhand -21.6592 -22.2418
rfingers 7.12502
rthumb 4.7378 -52.1688
lclavicle -6.55989e-015 -4.25399e-014
lhumerus -40.0234 2.43911 88.6554
lradius 31.1378
lwrist 30.2863
lhand -33.342 8.96758
lfingers 7.12502
lthumb -6.54437 38.8465
rfemur 2.74637 -1.10154 16.6492
rtibia 3.02153e-014
rfoot -10.0708 -18.1245
rtoes 10.6615
lfemur -10.629 -24.2446 -10.9431
ltibia 21.9375
lfoot -26.3921 14.8896
ltoes 18.4676
353
root -10.7992 18.0605 -16.5039 -147.608 86.0637 -153.343
lowerback 5.95203 0.0752099 0.600078
upperback -2.23613 0.278402 2.0015
thorax -5.67435 0.163746 1.71442
lowerneck -23.8592 -4.07696 -6.34674
upperneck 31.0231 -3.89498 2.80074
head 15.0085 -1.8373 1.52536
rclavicle 2.95692e-015 -2.66371e-014
rhumerus -48.3916 -1.76011 -77.1198
rradius 37.4625
rwrist 6.06184
rhand -21.5592 -21.9007
rfingers 7.12502
rthumb 4.83441 -51.8256
lclavicle 2.95692e-015 -2.66371e-014
lhumerus -39.8822 2.47176 88.7195
lradius 31.2761
lwrist 30.363
lhand -33.3364 9.04132
lfingers 7.12502
lthumb -6.539 38.9204
rfemur 2.76587 -1.08844 16.6676
rtibia -1.74931e-014
rfoot -10.0639 -18.1034
rtoes 10.5411
lfemur -10.6079 -23.8705 -10.9286
ltibia 21.8954
lfoot -26.142 14.6388
ltoes 18.1953
354
root -10.7973 18.0639 -16.5028 -147.397 86.0503 -153.128
lowerback 5.97747 0.0615884 0.578897
upperback -2.22257 0.260001 2.02433
thorax -5.67443 0.155891 1.75211
lowerneck -23.8631 -4.04555 -6.23909
upperneck 31.0331 -3.8266 2.61812
head 15.0022 -1.82244 1.44439
rclavicle -4.5472e-015 -9.14409e-015
rhumerus -48.2977 -1.82567 -76.9672
rradius 37.385
rwrist 6.09311
rhand -21.3278 -21.7125
rfingers 7.12502
rthumb 5.05785 -51.6321
lclavicle -4.5472e-015 -9.14409e-015
lhumerus -39.7519 2.4674 88.8158
lradius 31.4807
lwrist 30.4229
lhand -33.3023 9.1054
lfingers 7.12502
lthumb -6.50602 38.9855
rfemur 2.79284 -1.09159 16.6884
rtibia 1.90833e-014
rfoot -10.105 -18.0506
rtoes 10.5992
lfemur -10.5924 -23.4917 -10.9029
ltibia 21.8509
lfoot -25.8931 14.367
ltoes 17.9581
355
root -10.7959 18.066 -16.5029 -147.269 86.0203 -152.997
lowerback 6.01112 0.0417366 0.580348
upperback -2.21765 0.235404 2.04426
thorax -5.68796 0.144187 1.77482
lowerneck -23.8509 -4.0132 -6.13729
upperneck 31.0409 -3.75526 2.4361
head 14.9916 -1.80693 1.3655
rclavicle -1.44119e-015 -3.33958e-014
rhumerus -48.2551 -1.76422 -76.9063
rradius 37.4394
rwrist 5.95542
rhand -21.0321 -21.7725
rfingers 7.12502
rthumb 5.34333 -51.6852
lclavicle -1.44119e-015 -3.33958e-014
lhumerus -39.6327 2.41919 88.9395
lradius 31.7289
lwrist 30.4508
lhand -33.2498 9.13881
lfingers 7.12502
lthumb -6.45541 39.0204
rfemur 2.8179 -1.11195 16.7076
rtibia 7.95139e-015
rfoot -10.1701 -17.9924
rtoes 10.7955
lfemur -10.5905 -23.1882 -10.8729
ltibia 21.8243
lfoot -25.7072 14.1157
ltoes 17.9068
356
root -10.7952 18.0662 -16.5043 -147.311 85.9871 -153.036
lowerback 6.05498 0.0222485 0.594003
upperback -2.22152 0.212022 2.0532
thorax -5.71648 0.132453 1.77921
lowerneck -23.8326 -3.98811 -6.06193
upperneck 31.0505 -3.69879 2.29566
head 14.9834 -1.79466 1.30565
rclavicle 3.2551e-015 -1.51076e-014
rhumerus -48.2616 -1.61429 -76.923
rradius 37.6014
rwrist 5.68918
rhand -20.7963 -22.0453
rfingers 7.12502
rthumb 5.57103 -51.9521
lclavicle 3.2551e-015 -1.51076e-014
lhumerus -39.5333 2.30523 89.091
lradius 32.0201
lwrist 30.466
lhand -33.2051 9.12862
lfingers 7.12502
lthumb -6.41221 39.0116
rfemur 2.83295 -1.14129 16.7148
rtibia -2.54444e-014
rfoot -10.2223 -17.9545
rtoes 11.0066
lfemur -10.6007 -23.0015 -10.8548
ltibia 21.8221
lfoot -25.6113 13.9177
ltoes 18.1071
357
root -10.7949 18.0649 -16.5069 -147.582 85.9703 -153.306
lowerback 6.10705 0.00982155 0.602686
upperback -2.23097 0.196786 2.0454
thorax -5.75567 0.124525 1.76816
lowerneck -23.8206 -3.97579 -6.02755
upperneck 31.0645 -3.67041 2.2288
head 14.9831 -1.78821 1.27788
rclavicle 5.36719e-015 1.19271e-015
rhumerus -48.2997 -1.43485 -76.9848
rradius 37.8271
rwrist 5.3698
rhand -20.7593 -22.374
rfingers 7.12502
rthumb 5.60677 -52.2798
lclavicle 5.36719e-015 1.19271e-015
lhumerus -39.468 2.09297 89.2765
lradius 32.3738
lwrist 30.5162
lhand -33.1969 9.07424
lfingers 7.12502
lthumb -6.40427 38.9574
rfemur 2.83395 -1.16571 16.6983
rtibia -1.27222e-014
rfoot -10.2245 -17.9536
rtoes 11.0603
lfemur -10.6127 -22.9183 -10.8664
ltibia 21.8346
lfoot -25.5868 13.7855
ltoes 18.4925
358
root -10.7945 18.0632 -16.5103 -148.096 85.9845 -153.822
lowerback 6.16062 0.00710052 0.590668
upperback -2.24086 0.191548 2.02078
thorax -5.79644 0.121822 1.75015
lowerneck -23.8225 -3.97731 -6.04248
upperneck 31.0816 -3.6733 2.24998
head 14.9925 -1.78788 1.28889
rclavicle 1.03865e-014 -7.95139e-016
rhumerus -48.3445 -1.26847 -77.0608
rradius 38.0745
rwrist 5.06942
rhand -21.0148 -22.5578
rfingers 7.12502
rthumb 5.36002 -52.47
lclavicle 1.03865e-014 -7.95139e-016
lhumerus -39.4508 1.75889 89.5028
lradius 32.815
lwrist 30.6484
lhand -33.2411 8.98545
lfingers 7.12502
lthumb -6.44699 38.8673
rfemur 2.82191 -1.17302 16.6515
rtibia 3.18055e-015
rfoot -10.1524 -17.9931
rtoes 10.7959
lfemur -10.6141 -22.8837 -10.9186
ltibia 21.8434
lfoot -25.5816 13.7121
ltoes 18.8859
359
root -10.7936 18.0622 -16.5138 -148.821 86.0309 -154.549
lowerback 6.20578 0.0100662 0.55086
upperback -2.2464 0.190445 1.98632
thorax -5.82796 0.121846 1.73697
lowerneck -23.8363 -3.98938 -6.10979
upperneck 31.0967 -3.69919 2.3525
head 15.0082 -1.79163 1.33801
rclavicle 6.48535e-015 1.98785e-015
rhumerus -48.3733 -1.12115 -77.136
rradius 38.3198
rwrist 4.82922
rhand -21.5619 -22.4541
rfingers 7.12502
rthumb 4.83176 -52.379
lclavicle 6.48535e-015 1.98785e-015
lhumerus -39.4877 1.30977 89.7694
lradius 33.3536
lwrist 30.8758
lhand -33.3286 8.87957
lfingers 7.12502
lthumb -6.53148 38.7588
rfemur 2.80211 -1.16018 16.5781
rtibia -1.59028e-015
rfoot -10.0032 -18.0644
rtoes 10.1306
lfemur -10.598 -22.8315 -11.0085
ltibia 21.8334
lfoot -25.5353 13.6803
ltoes 19.0619
360
root -10.7916 18.0627 -16.5169 -149.677 86.0943 -155.412
lowerback 6.23213 0.00881289 0.488366
upperback -2.24513 0.181284 1.95393
thorax -5.84144 0.11869 1.7395
lowerneck -23.8518 -4.00598 -6.22653
upperneck 31.1048 -3.73168 2.51091
head 15.0244 -1.79603 1.41752
rclavicle -1.11816e-015 -1.59028e-015
rhumerus -48.371 -0.968222 -77.2129
rradius 38.5603
rwrist 4.65408
rhand -22.294 -22.0549
rfingers 7.12502
rthumb 4.12491 -51.9947
lclavicle -1.11816e-015 -1.59028e-015
lhumerus -39.5702 0.789499 90.0643
lradius 33.9697
lwrist 31.1626
lhand -33.427 8.77415
lfingers 7.12502
lthumb -6.62643 38.6505
rfemur 2.78147 -1.13634 16.4922
rtibia 3.18055e-015
rfoot -9.79901 -18.1509
rtoes 9.10744
lfemur -10.5676 -22.7206 -11.1185
ltibia 21.8011
lfoot -25.4121 13.6706
ltoes 18.8594
361
root -10.7886 18.0643 -16.5193 -150.565 86.149 -156.307
lowerback 6.23251 -0.00814631 0.417364
upperback -2.23763 0.150778 1.93578
thorax -5.83302 0.105591 1.76388
lowerneck -23.8567 -4.02106 -6.38253
upperneck 31.1051 -3.75313 2.68851
head 15.0358 -1.79788 1.51403
rclavicle -4.24902e-015 2.78299e-015
rhumerus -48.3317 -0.778819 -77.3027
rradius 38.8049
rwrist 4.52596
rhand -23.0333 -21.5025
rfingers 7.12502
rthumb 3.41098 -51.4549
lclavicle -4.24902e-015 2.78299e-015
lhumerus -39.6758 0.264116 90.367
lradius 34.6117
lwrist 31.439
lhand -33.4924 8.6842
lfingers 7.12502
lthumb -6.68958 38.5585
rfemur 2.76604 -1.11941 16.4133
rtibia -1.11319e-014
rfoot -9.57783 -18.2368
rtoes 7.88309
lfemur -10.5336 -22.5572 -11.2239
ltibia 21.754
lfoot -25.2193 13.6704
ltoes 18.2606
362
root -10.7848 18.0663 -16.5207 -151.377 86.1705 -157.128
lowerback 6.20618 -0.0479416 0.355591
upperback -2.22694 0.091616 1.93913
thorax -5.80517 0.07849 1.80853
lowerneck -23.8434 -4.03091 -6.55965
upperneck 31.1028 -3.75208 2.84757
head 15.041 -1.79567 1.61108
rclavicle 2.75814e-015 -1.51076e-014
rhumerus -48.2582 -0.54247 -77.4123
rradius 39.0595
rwrist 4.42424
rhand -23.5992 -21.0336
rfingers 7.12502
rthumb 2.86448 -50.9941
lclavicle 2.75814e-015 -1.51076e-014
lhumerus -39.7741 -0.206742 90.6559
lradius 35.2106
lwrist 31.6364
lhand -33.4907 8.61944
lfingers 7.12502
lthumb -6.68797 38.4938
rfemur 2.75914 -1.12756 16.3586
rtibia -1.43125e-014
rfoot -9.37722 -18.3127
rtoes 6.65774
lfemur -10.5112 -22.3867 -11.3017
ltibia 21.7109
lfoot -25.0036 13.6752
ltoes 17.4004
363
root -10.7808 18.068 -16.5215 -152.084 86.1572 -157.841
lowerback 6.16189 -0.106191 0.308821
upperback -2.21593 0.0101174 1.96009
thorax -5.76595 0.0402129 1.86538
lowerneck -23.8157 -4.03591 -6.74098
upperneck 31.1034 -3.73103 2.97467
head 15.0425 -1.7903 1.6997
rclavicle -2.13694e-015 3.97569e-016
rhumerus -48.1625 -0.275252 -77.5367
rradius 39.321
rwrist 4.33455
rhand -23.9554 -20.7621
rfingers 7.12502
rthumb 2.52039 -50.727
lclavicle -2.13694e-015 3.97569e-016
lhumerus -39.8509 -0.611 90.923
lradius 35.7397
lwrist 31.7449
lhand -33.4279 8.57594
lfingers 7.12502
lthumb -6.62728 38.4522
rfemur 2.7593 -1.16202 16.3284
rtibia 4.77083e-015
rfoot -9.20805 -18.379
rtoes 5.53318
lfemur -10.5064 -22.2443 -11.35
ltibia 21.6853
lfoot -24.8065 13.6836
ltoes 16.4588
364
root -10.7776 18.0684 -16.5215 -152.574 86.0897 -158.334
lowerback 6.10383 -0.181513 0.296828
upperback -2.20892 -0.0899332 1.99943
thorax -5.72238 -0.00800048 1.92366
lowerneck -23.7742 -4.03665 -6.89213
upperneck 31.1206 -3.6882 3.02443
head 15.0445 -1.78337 1.75553
rclavicle -8.57259e-015 5.1684e-015
rhumerus -48.0485 -0.0187983 -77.6661
rradius 39.5678
rwrist 4.265
rhand -23.9164 -21.0217
rfingers 7.12502
rthumb 2.55811 -50.9861
lclavicle -8.57259e-015 5.1684e-015
lhumerus -39.8666 -0.912265 91.1465
lradius 36.0883
lwrist 31.7273
lhand -33.286 8.56974
lfingers 7.12502
lthumb -6.49031 38.4503
rfemur 2.76798 -1.23711 16.337
rtibia -3.18055e-015
rfoot -9.10103 -18.4343
rtoes 4.71369
lfemur -10.5239 -22.2199 -11.3495
ltibia 21.6818
lfoot -24.7074 13.7121
ltoes 15.7597
